<svg width="50" height="50" viewBox="0 0 50 50" fill="none" xmlns="http://www.w3.org/2000/svg">
<path d="M27.5 25C28.8261 25 30.0979 25.5268 31.0355 26.4645C31.9732 27.4021 32.5 28.6739 32.5 30V33.75C32.5 38.885 27.28 42.5 18.75 42.5C10.22 42.5 5 38.885 5 33.75V30C5 28.6739 5.52678 27.4021 6.46447 26.4645C7.40215 25.5268 8.67392 25 10 25H27.5ZM27.5 27.5H10C9.33696 27.5 8.70107 27.7634 8.23223 28.2322C7.76339 28.7011 7.5 29.337 7.5 30V33.75C7.5 37.2675 11.4475 40 18.75 40C26.0525 40 30 37.2675 30 33.75V30C30 29.337 29.7366 28.7011 29.2678 28.2322C28.7989 27.7634 28.163 27.5 27.5 27.5ZM40 25C41.3261 25 42.5979 25.5268 43.5355 26.4645C44.4732 27.4021 45 28.6739 45 30V31.25C45 36.4725 41.08 40 33.75 40C33.3975 40 33.05 39.9925 32.715 39.975C33.235 39.37 33.67 38.72 34.02 38.0225L34.2625 37.49H34.36C39.94 37.3275 42.5 34.9 42.5 31.25V30C42.5 29.337 42.2366 28.7011 41.7678 28.2322C41.2989 27.7634 40.663 27.5 40 27.5H34.5725C34.2453 26.5778 33.7408 25.7285 33.0875 25H40ZM18.75 5C19.8991 5 21.0369 5.22633 22.0985 5.66605C23.1601 6.10578 24.1247 6.7503 24.9372 7.56282C25.7497 8.37533 26.3942 9.33992 26.8339 10.4015C27.2737 11.4631 27.5 12.6009 27.5 13.75C27.5 14.8991 27.2737 16.0369 26.8339 17.0985C26.3942 18.1601 25.7497 19.1247 24.9372 19.9372C24.1247 20.7497 23.1601 21.3942 22.0985 21.8339C21.0369 22.2737 19.8991 22.5 18.75 22.5C16.4294 22.5 14.2038 21.5781 12.5628 19.9372C10.9219 18.2962 10 16.0706 10 13.75C10 11.4294 10.9219 9.20376 12.5628 7.56282C14.2038 5.92187 16.4294 5 18.75 5V5ZM36.25 10C37.9076 10 39.4973 10.6585 40.6694 11.8306C41.8415 13.0027 42.5 14.5924 42.5 16.25C42.5 17.9076 41.8415 19.4973 40.6694 20.6694C39.4973 21.8415 37.9076 22.5 36.25 22.5C34.5924 22.5 33.0027 21.8415 31.8306 20.6694C30.6585 19.4973 30 17.9076 30 16.25C30 14.5924 30.6585 13.0027 31.8306 11.8306C33.0027 10.6585 34.5924 10 36.25 10ZM18.75 7.5C17.0924 7.5 15.5027 8.15848 14.3306 9.33058C13.1585 10.5027 12.5 12.0924 12.5 13.75C12.5 15.4076 13.1585 16.9973 14.3306 18.1694C15.5027 19.3415 17.0924 20 18.75 20C20.4076 20 21.9973 19.3415 23.1694 18.1694C24.3415 16.9973 25 15.4076 25 13.75C25 12.0924 24.3415 10.5027 23.1694 9.33058C21.9973 8.15848 20.4076 7.5 18.75 7.5ZM36.25 12.5C35.2554 12.5 34.3016 12.8951 33.5983 13.5983C32.8951 14.3016 32.5 15.2554 32.5 16.25C32.5 17.2446 32.8951 18.1984 33.5983 18.9017C34.3016 19.6049 35.2554 20 36.25 20C37.2446 20 38.1984 19.6049 38.9017 18.9017C39.6049 18.1984 40 17.2446 40 16.25C40 15.2554 39.6049 14.3016 38.9017 13.5983C38.1984 12.8951 37.2446 12.5 36.25 12.5Z" fill="white"/>
</svg>
