<svg width="50" height="50" viewBox="0 0 50 50" fill="none" xmlns="http://www.w3.org/2000/svg">
<path d="M44.7242 18.9234C45.4843 16.8703 45.7039 14.9125 45.1578 13.1555C44.9062 13.1781 44.6453 13.1898 44.3781 13.1898C36.3765 13.1898 22.2343 3.12969 21.164 1.5625C16.7539 7.98672 7.51012 12.9258 3.33199 18.4648C1.64137 20.7063 0.796053 22.3742 2.47808 24.9383L20.0945 47.5734C20.889 48.6492 22.4461 48.7367 23.5546 47.7445C23.5546 47.7445 38.0015 29.2062 48.4382 23.4703C47.6539 21.9383 46.3484 20.4094 44.7242 18.9234V18.9234ZM19.7875 42.7766L19.714 42.8273L19.6476 42.8852C19.3783 43.1267 19.1391 43.3997 18.9351 43.6984L3.67105 24.0867C2.57183 22.3859 2.88355 21.4906 4.50152 19.3469C6.33668 16.9148 9.26949 14.5539 12.375 12.0547C15.6031 9.45625 18.9281 6.78125 21.3703 3.7375C25.4015 7.05469 36.6773 14.3789 43.9734 14.6469C44.8484 23.2383 27.0343 37.7219 19.7875 42.7766" fill="white"/>
<path d="M15.6195 11.0609L35.3109 26.4906L36.0125 25.8625L16.132 10.6016L15.6195 11.0609Z" fill="white"/>
<path d="M22.0367 19.2742L13.9773 12.5305C13.9773 12.5305 11.1726 14.3211 7.77576 18.2484L14.9258 25.6406L22.0367 19.2742" fill="white"/>
<path d="M4.37964 21.9219L19.589 40.5633L22.3976 38.05L6.18198 19.5102C6.18198 19.5102 4.7687 20.275 4.37964 21.9219Z" fill="white"/>
<path d="M21.4219 22.9906L30.257 31.0141L33.0641 28.5008L23.8648 20.8039L21.4219 22.9906Z" fill="white"/>
<path d="M16.5359 27.3648L24.6429 36.0399L27.4492 33.5274L18.9789 25.1781L16.5359 27.3648Z" fill="white"/>
<path d="M21.7633 8.40314L20.5719 11.7485L21.3187 12.2922L25.1117 8.89611L24.3695 8.42892L21.7562 10.7688L22.9117 7.50783L22.1367 7.01877L18.5219 10.2547L19.1695 10.7258L21.7633 8.40314Z" fill="white"/>
<path d="M25.0094 14.9836L25.7329 14.3344L23.5258 12.7656L24.5266 11.8703L26.4868 13.2125L27.1829 12.5883L25.2008 11.2648L26.0274 10.5258L28.2219 11.9453L28.9344 11.3086L25.9 9.39297L22.0579 12.8328L25.0094 14.9836Z" fill="white"/>
<path d="M27.3602 16.6961L30.3594 14.8797L31.3414 14.2578L30.6899 15.1L28.7602 17.718L29.6922 18.3969L35.4641 15.4289L34.3688 14.7375L31.2039 16.5484L30.3961 17.0375L30.9383 16.3242L32.8141 13.7562L31.761 13.0922L28.8352 14.9055L28.0578 15.3969L28.593 14.7164L30.3649 12.2109L29.3774 11.5875L26.5172 16.082L27.3602 16.6961Z" fill="white"/>
<path d="M38.2086 16.957C37.4984 16.5109 36.8351 16.2977 36.2148 16.3102C35.5992 16.3234 35.0945 16.5086 34.6968 16.8648C34.2601 17.2555 34.1132 17.6609 34.257 18.0812C34.3414 18.3336 34.6101 18.6984 35.0687 19.1812L35.5429 19.6797C35.8257 19.9734 36.0078 20.2141 36.0875 20.3984C36.1656 20.5852 36.1273 20.7484 35.9734 20.8859C35.7101 21.1211 35.3671 21.1656 34.9461 21.0219C34.6842 20.9226 34.4376 20.7871 34.2132 20.6195C33.7679 20.3023 33.5515 19.9969 33.557 19.7023C33.5601 19.5414 33.6484 19.357 33.8211 19.1492L32.7968 18.4351C32.3351 18.8484 32.1601 19.3094 32.2757 19.8211C32.3921 20.3375 32.7882 20.8469 33.4757 21.3484C34.1609 21.8508 34.8429 22.1195 35.5132 22.1492C36.1906 22.1781 36.7484 22 37.1781 21.6133C37.6 21.2367 37.75 20.832 37.6296 20.4016C37.5531 20.1258 37.3382 19.8047 36.9914 19.4391L36.214 18.6187C35.9179 18.3094 35.7414 18.0945 35.6812 17.9719C35.5875 17.7851 35.6211 17.6203 35.7828 17.4766C35.9586 17.3187 36.1836 17.2547 36.4586 17.282C36.7375 17.3094 37.0281 17.4211 37.332 17.6164C37.6078 17.7945 37.8023 17.9789 37.9109 18.1695C38.0789 18.457 38.032 18.7344 37.7742 18.9976L38.9281 19.7578C39.4078 19.2953 39.5578 18.8055 39.3789 18.2906C39.2039 17.7805 38.8125 17.3351 38.2086 16.957" fill="white"/>
</svg>
