<svg width="50" height="50" viewBox="0 0 50 50" fill="none" xmlns="http://www.w3.org/2000/svg">
<path d="M0 25C0 11.1937 11.1937 0 25 0C38.8062 0 50 11.1937 50 25C50 38.8062 38.8062 50 25 50C11.2 49.9833 0.0166667 38.8 0 25.0021V25ZM5 25C5 36.0458 13.9542 45 25 45C36.0458 45 45 36.0458 45 25C45 13.9542 36.0458 5 25 5C13.9604 5.0125 5.0125 13.9604 5 24.9979V25ZM13.3333 25C13.3333 21.9058 14.5625 18.9383 16.7504 16.7504C18.9383 14.5625 21.9058 13.3333 25 13.3333C28.0942 13.3333 31.0617 14.5625 33.2496 16.7504C35.4375 18.9383 36.6667 21.9058 36.6667 25C36.6667 28.0942 35.4375 31.0617 33.2496 33.2496C31.0617 35.4375 28.0942 36.6667 25 36.6667C21.9058 36.6667 18.9383 35.4375 16.7504 33.2496C14.5625 31.0617 13.3333 28.0942 13.3333 25Z" fill="#28A745"/>
</svg>
