<svg width="181" height="58" viewBox="0 0 181 58" fill="none" xmlns="http://www.w3.org/2000/svg">
<path d="M30.8346 35.5116C30.387 39.3411 28.9696 42.3002 26.5824 44.389C24.2118 46.4612 21.0537 47.4973 17.1082 47.4973C12.8312 47.4973 9.39958 45.9639 6.81345 42.897C4.2439 39.8301 2.95913 35.7271 2.95913 30.588V27.1067C2.95913 23.7414 3.55593 20.7823 4.74952 18.2293C5.9597 15.6764 7.66721 13.7202 9.87205 12.3608C12.0769 10.9849 14.6299 10.2969 17.531 10.2969C21.377 10.2969 24.4605 11.3744 26.7813 13.5295C29.1022 15.6681 30.4533 18.6355 30.8346 22.4318H26.0353C25.6209 19.5473 24.7174 17.4585 23.3249 16.1654C21.9489 14.8723 20.0176 14.2258 17.531 14.2258C14.4807 14.2258 12.0852 15.3531 10.3445 17.6077C8.62043 19.8622 7.75838 23.07 7.75838 27.231V30.7372C7.75838 34.6662 8.57898 37.7911 10.2202 40.1119C11.8614 42.4328 14.1574 43.5933 17.1082 43.5933C19.7607 43.5933 21.7914 42.9965 23.2006 41.8029C24.6262 40.5927 25.5712 38.4956 26.0353 35.5116H30.8346Z" fill="white"/>
<path d="M81.3381 33.4974H69.2031V29.7426H81.3381V33.4974ZM94.3682 35.5862L95.0644 40.3606L96.084 36.0587L103.246 10.7942H107.274L114.261 36.0587L115.256 40.4352L116.027 35.5614L121.647 10.7942H126.446L117.668 47H113.317L105.857 20.6165L105.285 17.8563L104.713 20.6165L96.9792 47H92.6275L83.8744 10.7942H88.6488L94.3682 35.5862ZM136.89 47H132.116V10.7942H136.89V47ZM173.469 47H168.67L150.442 19.0997V47H145.643V10.7942H150.442L168.719 38.8189V10.7942H173.469V47Z" fill="white"/>
<path d="M50.6843 18.5081C42.5889 18.5081 36.0187 25.1098 36.0187 33.2439C36.0187 41.378 42.5889 47.9797 50.6843 47.9797C58.7797 47.9797 65.3499 41.378 65.3499 33.2439C65.3499 25.1098 58.7797 18.5081 50.6843 18.5081ZM58.0171 34.7175H52.1508V40.6118H49.2177V34.7175H43.3515V31.7703H49.2177V25.876H52.1508V31.7703H58.0171V34.7175Z" fill="#FDC000"/>
</svg>
