<svg width="51" height="56" viewBox="0 0 51 56" fill="none" xmlns="http://www.w3.org/2000/svg">
<g clip-path="url(#clip0)">
<path d="M14.9237 42.4022L1.58189 47.0605C0.33873 47.4265 -0.218099 45.8027 0.0779795 45.0961L21.6293 22.6468C22.1729 22.0828 22.6973 21.5332 22.5483 20.764L20.76 11.1226C20.2851 9.14381 22.7303 8.55636 23.4341 10.0672L28.8961 21.376C29.0836 21.7552 29.1645 22.1782 29.1304 22.5998C29.0962 23.0214 28.9482 23.4259 28.7022 23.77L15.8254 41.7278C15.6014 42.0401 15.2865 42.2757 14.9237 42.4023V42.4022ZM38.8919 26.7884L30.9954 46.9976C30.7812 47.546 30.4005 48.0134 29.9069 48.3343L18.4175 55.803C16.933 56.6291 15.8753 54.633 16.5409 53.7526L32.0121 26.9078C32.349 26.3204 32.4212 25.7989 32.1416 25.1821L28.1387 16.512C27.237 14.854 29.316 13.6551 30.0643 14.4214L38.5388 24.5298C38.7922 24.8414 38.9583 25.2147 39.0203 25.6114C39.0823 26.0082 39.038 26.4143 38.8919 26.7884ZM44.3372 37.6001C43.43 39.5474 41.2615 38.065 41.7483 36.2061L43.8792 26.7815C43.9231 26.6053 43.9229 26.4209 43.8786 26.2448C43.8344 26.0686 43.7474 25.9061 43.6254 25.7715L22.4325 2.39767C21.3777 1.24015 22.5869 -0.460956 24.0852 0.114575L37.3253 5.25783L50.0406 24.2317C50.2569 24.5545 50.3825 24.9295 50.4041 25.3175C50.4257 25.7056 50.3426 26.0922 50.1634 26.4371L44.3373 37.6002L44.3372 37.6001Z" fill="#FFC107"/>
</g>
<defs>
<clipPath id="clip0">
<rect width="50.4219" height="56" fill="white"/>
</clipPath>
</defs>
</svg>
