<svg width="50" height="50" viewBox="0 0 50 50" fill="none" xmlns="http://www.w3.org/2000/svg">
<path d="M19.7916 25C19.7916 26.1458 18.8541 27.0833 17.7083 27.0833C16.5625 27.0833 15.625 26.1458 15.625 25C15.625 23.8542 16.5625 22.9167 17.7083 22.9167C18.8541 22.9167 19.7916 23.8542 19.7916 25ZM28.6458 20.8333C29.7916 20.8333 30.7291 19.8958 30.7291 18.75C30.7291 17.6042 29.7916 16.6667 28.6458 16.6667C27.5 16.6667 26.5625 17.6042 26.5625 18.75C26.5625 19.8958 27.5 20.8333 28.6458 20.8333ZM21.3541 20.8333C22.5 20.8333 23.4375 19.8958 23.4375 18.75C23.4375 17.6042 22.5 16.6667 21.3541 16.6667C20.2083 16.6667 19.2708 17.6042 19.2708 18.75C19.2708 19.8958 20.2083 20.8333 21.3541 20.8333ZM21.3541 29.1667C20.2083 29.1667 19.2708 30.1042 19.2708 31.25C19.2708 32.3958 20.2083 33.3333 21.3541 33.3333C22.5 33.3333 23.4375 32.3958 23.4375 31.25C23.4375 30.1042 22.5 29.1667 21.3541 29.1667ZM45.8333 23.4375V26.5625C45.8333 27.4167 45.125 28.125 44.2708 28.125C43.4166 28.125 42.7083 27.4167 42.7083 26.5625H39.5C39.1996 29.3495 38.0999 31.9902 36.3333 34.1667L38.6041 36.4375L38.625 36.4167C39.2291 35.8125 40.2291 35.8125 40.8333 36.4167C41.4375 37.0208 41.4375 38.0208 40.8333 38.625L38.625 40.8333C38.0208 41.4375 37.0208 41.4375 36.4166 40.8333C36.1285 40.5435 35.9651 40.1525 35.9612 39.7438C35.9573 39.3351 36.1133 38.9411 36.3958 38.6458L34.125 36.375C31.9497 38.1266 29.3181 39.2183 26.5416 39.5208V42.7292H26.5625C27.4166 42.7292 28.125 43.4375 28.125 44.2917C28.125 45.1458 27.4166 45.8542 26.5625 45.8542H23.4375C22.5833 45.8542 21.875 45.1458 21.875 44.2917C21.875 43.4375 22.5625 42.75 23.4166 42.7292V39.5C20.6455 39.2013 18.0195 38.109 15.8541 36.3542L13.5833 38.625L13.6041 38.6458C14.2083 39.25 14.2083 40.25 13.6041 40.8542C13 41.4583 12 41.4583 11.3958 40.8542L9.16663 38.625C8.87604 38.331 8.71308 37.9342 8.71308 37.5208C8.71308 37.1074 8.87604 36.7107 9.16663 36.4167C9.77079 35.8125 10.75 35.8125 11.3541 36.3958L13.625 34.125C11.8716 31.9607 10.7858 29.3331 10.5 26.5625H7.29163C7.29163 27.4167 6.58329 28.125 5.72913 28.125C4.87496 28.125 4.16663 27.4167 4.16663 26.5625V23.4375C4.16663 22.5833 4.87496 21.875 5.72913 21.875C6.58329 21.875 7.29163 22.5833 7.29163 23.4375H10.5C10.8125 20.5833 11.9375 18 13.625 15.875L11.3541 13.6042C10.75 14.1875 9.77079 14.1875 9.16663 13.5833C8.87604 13.2893 8.71308 12.8926 8.71308 12.4792C8.71308 12.0658 8.87604 11.669 9.16663 11.375L11.375 9.16666C11.9791 8.56249 12.9791 8.56249 13.5833 9.16666C14.1875 9.77082 14.1875 10.7708 13.5833 11.375L13.5625 11.3958L15.8333 13.6667C18.0008 11.9153 20.6257 10.8234 23.3958 10.5208V7.29166C22.9855 7.28458 22.5944 7.11703 22.3062 6.82494C22.018 6.53286 21.8557 6.13948 21.8541 5.72916C21.8649 5.31455 22.0358 4.92021 22.331 4.62889C22.6262 4.33757 23.0227 4.1719 23.4375 4.16666H26.5625C27.4166 4.16666 28.125 4.87499 28.125 5.72916C28.125 6.58332 27.4166 7.29166 26.5625 7.29166H26.5416V10.5C29.3958 10.7917 32 11.9375 34.125 13.6458L36.3958 11.375C36.2534 11.2301 36.141 11.0585 36.065 10.8701C35.9889 10.6816 35.9508 10.4801 35.9527 10.2769C35.9547 10.0738 35.9966 9.87296 36.0762 9.68603C36.1558 9.49909 36.2715 9.32968 36.4166 9.18749C37.0208 8.58332 38.0208 8.58332 38.625 9.18749L40.8333 11.3958C41.4375 12 41.4375 13 40.8333 13.6042C40.2291 14.2083 39.2291 14.2083 38.625 13.6042L38.6041 13.5833L36.3333 15.8333C38.0951 18.0126 39.1942 20.6519 39.5 23.4375H42.7083C42.7083 22.5833 43.4166 21.875 44.2708 21.875C45.125 21.875 45.8333 22.5833 45.8333 23.4375V23.4375ZM35.4166 25C35.4166 19.25 30.75 14.5833 25 14.5833C19.25 14.5833 14.5833 19.25 14.5833 25C14.5833 30.75 19.25 35.4167 25 35.4167C30.75 35.4167 35.4166 30.75 35.4166 25ZM25 22.9167C23.8541 22.9167 22.9166 23.8542 22.9166 25C22.9166 26.1458 23.8541 27.0833 25 27.0833C26.1458 27.0833 27.0833 26.1458 27.0833 25C27.0833 23.8542 26.1458 22.9167 25 22.9167ZM32.2916 22.9167C31.1458 22.9167 30.2083 23.8542 30.2083 25C30.2083 26.1458 31.1458 27.0833 32.2916 27.0833C33.4375 27.0833 34.375 26.1458 34.375 25C34.375 23.8542 33.4375 22.9167 32.2916 22.9167ZM28.6458 29.1667C27.5 29.1667 26.5625 30.1042 26.5625 31.25C26.5625 32.3958 27.5 33.3333 28.6458 33.3333C29.7916 33.3333 30.7291 32.3958 30.7291 31.25C30.7291 30.1042 29.7916 29.1667 28.6458 29.1667Z" fill="white"/>
</svg>
