<svg width="50" height="50" viewBox="0 0 50 50" fill="none" xmlns="http://www.w3.org/2000/svg">
<path d="M1.5625 12.5C1.1481 12.5 0.750671 12.6646 0.457646 12.9576C0.16462 13.2507 0 13.6481 0 14.0625C0 14.4769 0.16462 14.8743 0.457646 15.1674C0.750671 15.4604 1.1481 15.625 1.5625 15.625H9.375V35.9375C9.375 36.3519 9.53962 36.7493 9.83265 37.0424C10.1257 37.3354 10.5231 37.5 10.9375 37.5C11.3519 37.5 11.7493 37.3354 12.0424 37.0424C12.3354 36.7493 12.5 36.3519 12.5 35.9375V15.625H48.4375C48.8519 15.625 49.2493 15.4604 49.5424 15.1674C49.8354 14.8743 50 14.4769 50 14.0625C50 13.6481 49.8354 13.2507 49.5424 12.9576C49.2493 12.6646 48.8519 12.5 48.4375 12.5H1.5625ZM23.4375 18.75C23.0231 18.75 22.6257 18.9146 22.3326 19.2076C22.0396 19.5007 21.875 19.8981 21.875 20.3125V35.9375C21.875 36.3519 22.0396 36.7493 22.3326 37.0424C22.6257 37.3354 23.0231 37.5 23.4375 37.5C23.8519 37.5 24.2493 37.3354 24.5424 37.0424C24.8354 36.7493 25 36.3519 25 35.9375V20.3125C25 19.8981 24.8354 19.5007 24.5424 19.2076C24.2493 18.9146 23.8519 18.75 23.4375 18.75ZM40.625 18.75C38.1403 18.7555 35.7589 19.745 34.002 21.502C32.245 23.2589 31.2555 25.6403 31.25 28.125C31.25 33.2917 35.4583 37.5 40.625 37.5C45.7917 37.5 50 33.2917 50 28.125C50 22.9583 45.7917 18.75 40.625 18.75ZM40.625 21.875C44.1042 21.875 46.875 24.6458 46.875 28.125C46.875 31.6042 44.1042 34.375 40.625 34.375C37.1458 34.375 34.375 31.6042 34.375 28.125C34.375 24.6458 37.1458 21.875 40.625 21.875Z" fill="#007BFF"/>
</svg>
