<svg width="45" height="45" viewBox="0 0 45 45" fill="none" xmlns="http://www.w3.org/2000/svg">
<path d="M37.4999 11.25C37.4999 7.18498 30.6318 3.74998 22.4999 3.74998C14.368 3.74998 7.49988 7.18498 7.49988 11.25V15C7.49988 19.065 14.368 22.5 22.4999 22.5C30.6318 22.5 37.4999 19.065 37.4999 15V11.25ZM22.4999 35.625C14.368 35.625 7.49988 32.19 7.49988 28.125V33.75C7.49988 37.815 14.368 41.25 22.4999 41.25C30.6318 41.25 37.4999 37.815 37.4999 33.75V28.125C37.4999 32.19 30.6318 35.625 22.4999 35.625Z" fill="#AAAAAA" fill-opacity="0.5"/>
<path d="M37.4999 18.75C37.4999 22.815 30.6318 26.25 22.4999 26.25C14.368 26.25 7.49988 22.815 7.49988 18.75V24.375C7.49988 28.44 14.368 31.875 22.4999 31.875C30.6318 31.875 37.4999 28.44 37.4999 24.375V18.75Z" fill="#AAAAAA" fill-opacity="0.5"/>
</svg>
