<svg width="40" height="46" viewBox="0 0 40 46" fill="none" xmlns="http://www.w3.org/2000/svg">
<g clip-path="url(#clip0)">
<path d="M11.4286 21.7857V18.2143C11.4286 17.6226 11.9083 17.1429 12.5 17.1429H16.0714C16.6631 17.1429 17.1429 17.6226 17.1429 18.2143V21.7857C17.1429 22.3774 16.6631 22.8571 16.0714 22.8571H12.5C11.9083 22.8571 11.4286 22.3774 11.4286 21.7857ZM23.9286 22.8571H27.5C28.0917 22.8571 28.5714 22.3774 28.5714 21.7857V18.2143C28.5714 17.6226 28.0917 17.1429 27.5 17.1429H23.9286C23.3369 17.1429 22.8571 17.6226 22.8571 18.2143V21.7857C22.8571 22.3774 23.3369 22.8571 23.9286 22.8571ZM17.1429 30.3571V26.7857C17.1429 26.194 16.6631 25.7143 16.0714 25.7143H12.5C11.9083 25.7143 11.4286 26.194 11.4286 26.7857V30.3571C11.4286 30.9488 11.9083 31.4286 12.5 31.4286H16.0714C16.6631 31.4286 17.1429 30.9488 17.1429 30.3571ZM23.9286 31.4286H27.5C28.0917 31.4286 28.5714 30.9488 28.5714 30.3571V26.7857C28.5714 26.194 28.0917 25.7143 27.5 25.7143H23.9286C23.3369 25.7143 22.8571 26.194 22.8571 26.7857V30.3571C22.8571 30.9488 23.3369 31.4286 23.9286 31.4286ZM40 42.5V45.7143H0V42.5C0 41.9083 0.479732 41.4286 1.07143 41.4286H2.8125V7.59241C2.8125 6.55518 3.77188 5.71429 4.95536 5.71429H12.8571V2.14286C12.8571 0.959375 13.8165 0 15 0H25C26.1835 0 27.1429 0.959375 27.1429 2.14286V5.71429H35.0446C36.2281 5.71429 37.1875 6.55518 37.1875 7.59241V41.4286H38.9286C39.5203 41.4286 40 41.9083 40 42.5ZM7.09821 41.3393H17.1429V35.3571C17.1429 34.7654 17.6226 34.2857 18.2143 34.2857H21.7857C22.3774 34.2857 22.8571 34.7654 22.8571 35.3571V41.3393H32.9018V10H27.1429V12.1429C27.1429 13.3263 26.1835 14.2857 25 14.2857H15C13.8165 14.2857 12.8571 13.3263 12.8571 12.1429V10H7.09821V41.3393ZM23.75 5.71429H21.4286V3.39286C21.4286 3.25078 21.3721 3.11452 21.2717 3.01405C21.1712 2.91358 21.0349 2.85714 20.8929 2.85714H19.1071C18.9651 2.85714 18.8288 2.91358 18.7283 3.01405C18.6279 3.11452 18.5714 3.25078 18.5714 3.39286V5.71429H16.25C16.1079 5.71429 15.9717 5.77073 15.8712 5.87119C15.7707 5.97166 15.7143 6.10792 15.7143 6.25V8.03571C15.7143 8.17779 15.7707 8.31406 15.8712 8.41452C15.9717 8.51499 16.1079 8.57143 16.25 8.57143H18.5714V10.8929C18.5714 11.0349 18.6279 11.1712 18.7283 11.2717C18.8288 11.3721 18.9651 11.4286 19.1071 11.4286H20.8929C21.0349 11.4286 21.1712 11.3721 21.2717 11.2717C21.3721 11.1712 21.4286 11.0349 21.4286 10.8929V8.57143H23.75C23.8921 8.57143 24.0283 8.51499 24.1288 8.41452C24.2293 8.31406 24.2857 8.17779 24.2857 8.03571V6.25C24.2857 6.10792 24.2293 5.97166 24.1288 5.87119C24.0283 5.77073 23.8921 5.71429 23.75 5.71429Z" fill="white"/>
</g>
<defs>
<clipPath id="clip0">
<rect width="40" height="45.7143" fill="white"/>
</clipPath>
</defs>
</svg>
